<svg width="24" height="24" viewBox="0 0 24 24" fill="none" xmlns="http://www.w3.org/2000/svg">
<g id="at">
<path id="Vector" d="M19.1528 5.42738C17.6481 3.78675 15.4263 2.91957 12.7263 2.91957C10.3356 2.91957 8.00596 3.84769 6.17315 5.53519C4.34034 7.22269 3.21534 9.46332 3.0044 11.8539C2.79346 14.2774 3.54346 16.5555 5.11377 18.2711C6.6794 19.9774 8.86377 20.9196 11.2731 20.9196C12.7966 20.9196 13.7856 20.8071 15.281 20.1836C15.6606 20.0243 15.8435 19.5836 15.6841 19.2039C15.5247 18.8243 15.0841 18.6414 14.7044 18.8008C13.4294 19.3352 12.6513 19.4243 11.2778 19.4243C9.29502 19.4243 7.49971 18.6555 6.22471 17.2633C4.94034 15.8618 4.32627 13.9868 4.5044 11.9899C4.87002 7.818 8.56377 4.42425 12.7356 4.42425C15.0044 4.42425 16.8419 5.12269 18.056 6.44457C19.2091 7.7055 19.7247 9.44457 19.5466 11.4696C19.3919 13.2227 18.7122 14.0852 18.1731 14.4977C17.6575 14.8914 17.1419 14.9758 16.8606 14.9243C16.031 14.7789 15.5997 13.9633 15.7075 12.7539L16.106 8.23988C16.1435 7.82738 15.8388 7.46175 15.4263 7.42894C15.0138 7.39144 14.6481 7.69613 14.6153 8.10863L14.5778 8.53519C13.8653 7.818 12.9185 7.42425 11.9013 7.42425C10.7856 7.42425 9.72159 7.89769 8.90127 8.7555C8.11377 9.57582 7.62627 10.6821 7.52315 11.8586C7.40596 13.1664 7.79502 14.4039 8.57784 15.2618C9.26221 16.0118 10.2091 16.4243 11.245 16.4243C12.3888 16.4243 13.4669 16.0024 14.2778 15.243C14.3903 15.1399 14.4981 15.0274 14.5966 14.9102C15.0606 15.8055 15.8575 16.2696 16.6075 16.4055C17.3997 16.5461 18.3278 16.2789 19.0966 15.693C19.8794 15.093 20.8497 13.8977 21.0513 11.6055C21.2435 9.17269 20.5778 6.98363 19.1528 5.42738ZM11.2263 14.9196C10.6075 14.9196 10.0685 14.6852 9.66534 14.2446C9.16377 13.6961 8.92002 12.8711 8.99971 11.9852C9.14971 10.2649 10.42 8.91957 11.8872 8.91957C12.5341 8.91957 13.1294 9.18207 13.57 9.66019C14.081 10.218 14.3294 11.0149 14.2544 11.8539C14.0669 13.968 12.595 14.9196 11.2263 14.9196Z" fill="#B52184"/>
</g>
</svg>
